# Castaway mob model -- procedurally generated
# Geometry: torso (tapered cylinder), head (sphere), eyes (2 small spheres), arms (2 cones)
mtllib mob.mtl
o mob
v 0.35000 1.40000 0.00000
v 0.24749 1.40000 0.24749
v 0.00000 1.40000 0.35000
v -0.24749 1.40000 0.24749
v -0.35000 1.40000 0.00000
v -0.24749 1.40000 -0.24749
v -0.00000 1.40000 -0.35000
v 0.24749 1.40000 -0.24749
v 0.50000 0.00000 0.00000
v 0.35355 0.00000 0.35355
v 0.00000 0.00000 0.50000
v -0.35355 0.00000 0.35355
v -0.50000 0.00000 0.00000
v -0.35355 0.00000 -0.35355
v -0.00000 0.00000 -0.50000
v 0.35355 0.00000 -0.35355
v 0.00000 1.40000 0.00000
v 0.00000 0.00000 0.00000
v 0.00000 1.97000 0.00000
v 0.16000 1.92713 0.00000
v 0.11314 1.92713 0.11314
v 0.00000 1.92713 0.16000
v -0.11314 1.92713 0.11314
v -0.16000 1.92713 0.00000
v -0.11314 1.92713 -0.11314
v -0.00000 1.92713 -0.16000
v 0.11314 1.92713 -0.11314
v 0.27713 1.81000 0.00000
v 0.19596 1.81000 0.19596
v 0.00000 1.81000 0.27713
v -0.19596 1.81000 0.19596
v -0.27713 1.81000 0.00000
v -0.19596 1.81000 -0.19596
v -0.00000 1.81000 -0.27713
v 0.19596 1.81000 -0.19596
v 0.32000 1.65000 0.00000
v 0.22627 1.65000 0.22627
v 0.00000 1.65000 0.32000
v -0.22627 1.65000 0.22627
v -0.32000 1.65000 0.00000
v -0.22627 1.65000 -0.22627
v -0.00000 1.65000 -0.32000
v 0.22627 1.65000 -0.22627
v 0.27713 1.49000 0.00000
v 0.19596 1.49000 0.19596
v 0.00000 1.49000 0.27713
v -0.19596 1.49000 0.19596
v -0.27713 1.49000 0.00000
v -0.19596 1.49000 -0.19596
v -0.00000 1.49000 -0.27713
v 0.19596 1.49000 -0.19596
v 0.16000 1.37287 0.00000
v 0.11314 1.37287 0.11314
v 0.00000 1.37287 0.16000
v -0.11314 1.37287 0.11314
v -0.16000 1.37287 0.00000
v -0.11314 1.37287 -0.11314
v -0.00000 1.37287 -0.16000
v 0.11314 1.37287 -0.11314
v 0.00000 1.33000 0.00000
v -0.12000 1.76000 0.28000
v -0.07757 1.74243 0.28000
v -0.09879 1.74243 0.31674
v -0.14121 1.74243 0.31674
v -0.16243 1.74243 0.28000
v -0.14121 1.74243 0.24326
v -0.09879 1.74243 0.24326
v -0.06000 1.70000 0.28000
v -0.09000 1.70000 0.33196
v -0.15000 1.70000 0.33196
v -0.18000 1.70000 0.28000
v -0.15000 1.70000 0.22804
v -0.09000 1.70000 0.22804
v -0.07757 1.65757 0.28000
v -0.09879 1.65757 0.31674
v -0.14121 1.65757 0.31674
v -0.16243 1.65757 0.28000
v -0.14121 1.65757 0.24326
v -0.09879 1.65757 0.24326
v -0.12000 1.64000 0.28000
v 0.12000 1.76000 0.28000
v 0.16243 1.74243 0.28000
v 0.14121 1.74243 0.31674
v 0.09879 1.74243 0.31674
v 0.07757 1.74243 0.28000
v 0.09879 1.74243 0.24326
v 0.14121 1.74243 0.24326
v 0.18000 1.70000 0.28000
v 0.15000 1.70000 0.33196
v 0.09000 1.70000 0.33196
v 0.06000 1.70000 0.28000
v 0.09000 1.70000 0.22804
v 0.15000 1.70000 0.22804
v 0.16243 1.65757 0.28000
v 0.14121 1.65757 0.31674
v 0.09879 1.65757 0.31674
v 0.07757 1.65757 0.28000
v 0.09879 1.65757 0.24326
v 0.14121 1.65757 0.24326
v 0.12000 1.64000 0.28000
v -0.21029 1.43879 0.00000
v -0.58440 0.50368 0.00000
v -0.63706 0.53244 0.10392
v -0.74237 0.58997 0.10392
v -0.79502 0.61874 0.00000
v -0.74237 0.58997 -0.10392
v -0.63706 0.53244 -0.10392
v -0.68971 0.56121 0.00000
v 0.21029 1.43879 0.00000
v 0.79502 0.61874 0.00000
v 0.74237 0.58997 0.10392
v 0.63706 0.53244 0.10392
v 0.58440 0.50368 0.00000
v 0.63706 0.53244 -0.10392
v 0.74237 0.58997 -0.10392
v 0.68971 0.56121 0.00000
usemtl body
f 1 9 2
f 2 9 10
f 2 10 3
f 3 10 11
f 3 11 4
f 4 11 12
f 4 12 5
f 5 12 13
f 5 13 6
f 6 13 14
f 6 14 7
f 7 14 15
f 7 15 8
f 8 15 16
f 8 16 1
f 1 16 9
f 17 2 1
f 17 3 2
f 17 4 3
f 17 5 4
f 17 6 5
f 17 7 6
f 17 8 7
f 17 1 8
f 18 9 10
f 18 10 11
f 18 11 12
f 18 12 13
f 18 13 14
f 18 14 15
f 18 15 16
f 18 16 9
f 19 20 21
f 19 21 22
f 19 22 23
f 19 23 24
f 19 24 25
f 19 25 26
f 19 26 27
f 19 27 20
f 20 21 29
f 20 29 28
f 21 22 30
f 21 30 29
f 22 23 31
f 22 31 30
f 23 24 32
f 23 32 31
f 24 25 33
f 24 33 32
f 25 26 34
f 25 34 33
f 26 27 35
f 26 35 34
f 27 20 28
f 27 28 35
f 28 29 37
f 28 37 36
f 29 30 38
f 29 38 37
f 30 31 39
f 30 39 38
f 31 32 40
f 31 40 39
f 32 33 41
f 32 41 40
f 33 34 42
f 33 42 41
f 34 35 43
f 34 43 42
f 35 28 36
f 35 36 43
f 36 37 45
f 36 45 44
f 37 38 46
f 37 46 45
f 38 39 47
f 38 47 46
f 39 40 48
f 39 48 47
f 40 41 49
f 40 49 48
f 41 42 50
f 41 50 49
f 42 43 51
f 42 51 50
f 43 36 44
f 43 44 51
f 44 45 53
f 44 53 52
f 45 46 54
f 45 54 53
f 46 47 55
f 46 55 54
f 47 48 56
f 47 56 55
f 48 49 57
f 48 57 56
f 49 50 58
f 49 58 57
f 50 51 59
f 50 59 58
f 51 44 52
f 51 52 59
f 60 53 52
f 60 54 53
f 60 55 54
f 60 56 55
f 60 57 56
f 60 58 57
f 60 59 58
f 60 52 59
usemtl eye
f 61 62 63
f 61 63 64
f 61 64 65
f 61 65 66
f 61 66 67
f 61 67 62
f 62 63 69
f 62 69 68
f 63 64 70
f 63 70 69
f 64 65 71
f 64 71 70
f 65 66 72
f 65 72 71
f 66 67 73
f 66 73 72
f 67 62 68
f 67 68 73
f 68 69 75
f 68 75 74
f 69 70 76
f 69 76 75
f 70 71 77
f 70 77 76
f 71 72 78
f 71 78 77
f 72 73 79
f 72 79 78
f 73 68 74
f 73 74 79
f 80 75 74
f 80 76 75
f 80 77 76
f 80 78 77
f 80 79 78
f 80 74 79
f 81 82 83
f 81 83 84
f 81 84 85
f 81 85 86
f 81 86 87
f 81 87 82
f 82 83 89
f 82 89 88
f 83 84 90
f 83 90 89
f 84 85 91
f 84 91 90
f 85 86 92
f 85 92 91
f 86 87 93
f 86 93 92
f 87 82 88
f 87 88 93
f 88 89 95
f 88 95 94
f 89 90 96
f 89 96 95
f 90 91 97
f 90 97 96
f 91 92 98
f 91 98 97
f 92 93 99
f 92 99 98
f 93 88 94
f 93 94 99
f 100 95 94
f 100 96 95
f 100 97 96
f 100 98 97
f 100 99 98
f 100 94 99
usemtl body
f 101 102 103
f 101 103 104
f 101 104 105
f 101 105 106
f 101 106 107
f 101 107 102
f 108 103 102
f 108 104 103
f 108 105 104
f 108 106 105
f 108 107 106
f 108 102 107
f 109 110 111
f 109 111 112
f 109 112 113
f 109 113 114
f 109 114 115
f 109 115 110
f 116 111 110
f 116 112 111
f 116 113 112
f 116 114 113
f 116 115 114
f 116 110 115
